<?xml version="1.0" encoding="utf-8"?>
<!-- Generator: Adobe Illustrator 23.0.6, SVG Export Plug-In . SVG Version: 6.00 Build 0)  -->
<svg version="1.1" id="Calque_1" xmlns="http://www.w3.org/2000/svg" xmlns:xlink="http://www.w3.org/1999/xlink" x="0px" y="0px"
	 viewBox="0 0 90 10.5" style="enable-background:new 0 0 90 10.5;" xml:space="preserve">
<style type="text/css">
	.st0{fill:none;}
</style>
<g>
	<path class="st0" d="M3.5,5.8H2.2v3l1.3,0c1,0,1.7-0.4,1.7-1.5C5.1,6.3,4.6,5.8,3.5,5.8z"/>
	<path class="st0" d="M13.3,1.8L13.3,1.8c-0.2,0.7-0.3,1-0.4,1.5L12,6.5h2.4l-0.8-3.3C13.5,2.7,13.4,2.3,13.3,1.8z"/>
	<path class="st0" d="M4.9,3c0-0.8-0.4-1.3-1.4-1.3H2.2v2.6h1.4C4.5,4.3,4.9,3.8,4.9,3z"/>
	<path class="st0" d="M66.1,1.8L66.1,1.8c-0.2,0.7-0.3,1-0.4,1.5l-0.8,3.3h2.4l-0.8-3.3C66.3,2.7,66.2,2.3,66.1,1.8z"/>
	<path class="st0" d="M85.6,1.8L85.6,1.8c-0.2,0.7-0.3,1-0.4,1.5l-0.8,3.3h2.4l-0.8-3.3C85.8,2.7,85.7,2.3,85.6,1.8z"/>
	<rect x="57.3" y="0.1" width="2.2" height="10.2"/>
	<path d="M51.4,8.9c-1.2,0-1.6-0.8-1.6-2.9V4.5c0-2.1,0.4-2.9,1.6-2.9c1.1,0,1.3,0.7,1.3,1.5h2.2c0-1.8-1-3-3.6-3
		c-2.8,0-3.8,1.7-3.8,4.5V6c0,2.8,1,4.5,3.8,4.5c2.4,0,3.6-1.1,3.6-3.2h-2.2C52.7,8.3,52.4,8.9,51.4,8.9z"/>
	<path d="M87.1,0.1H84l-2.9,10.2h2.2L83.9,8h3.1l0.7,2.3H90L87.1,0.1z M84.3,6.5l0.8-3.3c0.1-0.5,0.2-0.8,0.4-1.5h0.1
		c0.1,0.5,0.2,1,0.3,1.5l0.8,3.3H84.3z"/>
	<path d="M76,1.5c0.9,0,1.3,0.6,1.3,1.3h2.2C79.4,1.1,78.1,0,76,0c-3,0-4.1,1.7-4.1,4.5V6c0,3,1,4.5,4.3,4.5v0
		c1.3,0,2.5-0.3,3.3-0.6V4.8h-3.5v1.6h1.4v2.3c-0.3,0.2-0.7,0.3-1.2,0.3c-1.5,0-2-0.7-2-2.9V4.7C74.2,2.6,74.6,1.5,76,1.5z"/>
	<path d="M64.5,0.1l-2.9,10.2h2.2L64.4,8h3.1l0.7,2.3h2.3L67.6,0.1H64.5z M64.8,6.5l0.8-3.3c0.1-0.5,0.2-0.8,0.4-1.5h0.1
		c0.1,0.5,0.2,1,0.3,1.5l0.8,3.3H64.8z"/>
	<path d="M11.7,0.1L8.8,10.3H11L11.6,8h3.1l0.7,2.3h2.3L14.8,0.1H11.7z M12,6.5l0.8-3.3c0.1-0.5,0.2-0.8,0.4-1.5h0.1
		c0.1,0.5,0.2,1,0.3,1.5l0.8,3.3H12z"/>
	<path d="M5,5L5,5c1.3-0.3,2.1-1,2.1-2.3c0-1.7-1-2.5-3.2-2.5H0v10.2h3.8c2.2,0,3.5-0.8,3.5-2.9C7.3,6.1,6.5,5.2,5,5z M2.2,1.7h1.4
		c1,0,1.4,0.4,1.4,1.3c0,0.8-0.5,1.3-1.4,1.3H2.2V1.7z M3.4,8.8l-1.3,0v-3h1.3c1.1,0,1.6,0.5,1.6,1.5C5.1,8.4,4.4,8.8,3.4,8.8z"/>
	<polygon points="30,5.9 33.4,5.9 33.4,4.2 30,4.2 30,1.8 33.6,1.8 33.6,0.1 27.8,0.1 27.8,10.3 33.7,10.3 33.7,8.7 30,8.7 	"/>
	<polygon points="22.1,0.1 19.9,0.1 19.9,10.3 25.6,10.3 25.6,8.7 22.1,8.7 	"/>
	<path d="M42.8,5.8c0,0.7,0,1.7,0,2.7h-0.1c-0.2-0.7-0.3-1.4-0.7-2.6L40,0.1h-3.3l0,10.2h1.9V4.4c0-0.8,0-1.8-0.1-2.6h0.1
		c0.3,1.1,0.5,1.6,0.8,2.4l2.2,6.2h3.2V0.1h-1.9V5.8z"/>
</g>
</svg>
